<svg width="693" height="861" viewBox="0 0 693 861" fill="none" xmlns="http://www.w3.org/2000/svg">
<path d="M471.542 10.02V6.24H467.982V4.56H471.542V0.779999H473.302V4.56H476.862V6.24H473.302V10.02H471.542ZM479.974 6.24V4.56H488.854V6.24H479.974ZM491.966 6.24V4.56H500.846V6.24H491.966ZM503.958 6.24V4.56H512.838V6.24H503.958ZM515.951 6.24V4.56H524.831V6.24H515.951ZM531.503 10.02V6.24H527.943V4.56H531.503V0.779999H533.263V4.56H536.823V6.24H533.263V10.02H531.503ZM471.402 42V22H473.442V42H471.402ZM531.363 42V22H533.403V42H531.363ZM459.55 60.02V56.24H455.99V54.56H459.55V50.78H461.31V54.56H464.87V56.24H461.31V60.02H459.55ZM467.982 56.24V54.56H476.862V56.24H467.982ZM479.974 56.24V54.56H488.854V56.24H479.974ZM491.966 56.24V54.56H500.846V56.24H491.966ZM503.958 56.24V54.56H512.838V56.24H503.958ZM519.511 60.02V56.24H515.951V54.56H519.511V50.78H521.271V54.56H524.831V56.24H521.271V60.02H519.511ZM527.943 56.24V54.56H536.823V56.24H527.943ZM543.495 60.02V56.24H539.935V54.56H543.495V50.78H545.255V54.56H548.815V56.24H545.255V60.02H543.495ZM447.558 85.02V81.24H443.998V79.56H447.558V75.78H449.318V79.56H452.878V81.24H449.318V85.02H447.558ZM459.55 85.02V81.24H455.99V79.56H459.55V75.78H461.31V79.56H464.87V81.24H461.31V85.02H459.55ZM471.542 85.02V81.24H467.982V79.56H471.542V75.78H473.302V79.56H476.862V81.24H473.302V85.02H471.542ZM479.974 81.24V79.56H488.854V81.24H479.974ZM491.966 81.24V79.56H500.846V81.24H491.966ZM503.958 81.24V79.56H512.838V81.24H503.958ZM519.511 85.02V81.24H515.951V79.56H519.511V75.78H521.271V79.56H524.831V81.24H521.271V85.02H519.511ZM543.355 92V72H545.395V92H543.355ZM420.013 106.24V104.56H428.893V106.24H420.013ZM432.005 106.24V104.56H440.885V106.24H432.005ZM447.558 110.02V106.24H443.998V104.56H447.558V100.78H449.318V104.56H452.878V106.24H449.318V110.02H447.558ZM455.99 106.24V104.56H464.87V106.24H455.99ZM471.542 110.02V106.24H467.982V104.56H471.542V100.78H473.302V104.56H476.862V106.24H473.302V110.02H471.542ZM519.371 117V97H521.411V117H519.371ZM543.355 117V97H545.395V117H543.355ZM471.402 142V122H473.442V142H471.402ZM519.511 135.02V131.24H515.951V129.56H519.511V125.78H521.271V129.56H524.831V131.24H521.271V135.02H519.511ZM527.943 131.24V129.56H536.823V131.24H527.943ZM543.495 135.02V131.24H539.935V129.56H543.495V125.78H545.255V129.56H548.815V131.24H545.255V135.02H543.495ZM483.534 160.02V156.24H479.974V154.56H483.534V150.78H485.294V154.56H488.854V156.24H485.294V160.02H483.534ZM491.966 156.24V154.56H500.846V156.24H491.966ZM503.958 156.24V154.56H512.838V156.24H503.958ZM515.951 156.24V154.56H524.831V156.24H515.951ZM531.503 160.02V156.24H527.943V154.56H531.503V150.78H533.263V154.56H536.823V156.24H533.263V160.02H531.503ZM465.406 192V172H467.446V192H465.406ZM513.515 185.02V181.24H509.955V179.56H513.515V175.78H515.275V179.56H518.835V181.24H515.275V185.02H513.515ZM521.947 181.24V179.56H530.827V181.24H521.947ZM537.499 185.02V181.24H533.939V179.56H537.499V175.78H539.259V179.56H542.819V181.24H539.259V185.02H537.499ZM545.931 181.24V179.56H554.811V181.24H545.931ZM471.402 217V197H473.442V217H471.402ZM519.371 217V197H521.411V217H519.371ZM543.355 217V197H545.395V217H543.355ZM465.546 235.02V231.24H461.986V229.56H465.546V225.78H467.306V229.56H470.866V231.24H467.306V235.02H465.546ZM473.978 231.24V229.56H482.858V231.24H473.978ZM485.97 231.24V229.56H494.85V231.24H485.97ZM497.962 231.24V229.56H506.842V231.24H497.962ZM513.515 235.02V231.24H509.955V229.56H513.515V225.78H515.275V229.56H518.835V231.24H515.275V235.02H513.515ZM521.947 231.24V229.56H530.827V231.24H521.947ZM537.499 235.02V231.24H533.939V229.56H537.499V225.78H539.259V229.56H542.819V231.24H539.259V235.02H537.499ZM549.491 235.02V231.24H545.931V229.56H549.491V225.78H551.251V229.56H554.811V231.24H551.251V235.02H549.491ZM465.406 267V247H467.446V267H465.406ZM513.375 267V247H515.415V267H513.375ZM525.507 260.02V256.24H521.947V254.56H525.507V250.78H527.267V254.56H530.827V256.24H527.267V260.02H525.507ZM537.359 267V247H539.399V267H537.359ZM549.351 267V247H551.391V267H549.351ZM465.406 292V272H467.446V292H465.406ZM513.515 285.02V281.24H509.955V279.56H513.515V275.78H515.275V279.56H518.835V281.24H515.275V285.02H513.515ZM521.947 281.24V279.56H530.827V281.24H521.947ZM537.499 285.02V281.24H533.939V279.56H537.499V275.78H539.259V279.56H542.819V281.24H539.259V285.02H537.499ZM549.351 292V272H551.391V292H549.351ZM339.628 310.02V306.24H336.068V304.56H339.628V300.78H341.388V304.56H344.948V306.24H341.388V310.02H339.628ZM348.06 306.24V304.56H356.94V306.24H348.06ZM360.052 306.24V304.56H368.932V306.24H360.052ZM375.604 310.02V306.24H372.044V304.56H375.604V300.78H377.364V304.56H380.924V306.24H377.364V310.02H375.604ZM384.037 306.24V304.56H392.917V306.24H384.037ZM399.589 310.02V306.24H396.029V304.56H399.589V300.78H401.349V304.56H404.909V306.24H401.349V310.02H399.589ZM423.433 317V297H425.473V317H423.433ZM435.565 310.02V306.24H432.005V304.56H435.565V300.78H437.325V304.56H440.885V306.24H437.325V310.02H435.565ZM447.558 310.02V306.24H443.998V304.56H447.558V300.78H449.318V304.56H452.878V306.24H449.318V310.02H447.558ZM459.41 317V297H461.45V317H459.41ZM599.896 306.24V304.56H608.776V306.24H599.896ZM611.888 306.24V304.56H620.768V306.24H611.888ZM627.44 310.02V306.24H623.88V304.56H627.44V300.78H629.2V304.56H632.76V306.24H629.2V310.02H627.44ZM639.433 310.02V306.24H635.873V304.56H639.433V300.78H641.193V304.56H644.753V306.24H641.193V310.02H639.433ZM315.503 342V322H317.543V342H315.503ZM327.636 335.02V331.24H324.076V329.56H327.636V325.78H329.396V329.56H332.956V331.24H329.396V335.02H327.636ZM339.628 335.02V331.24H336.068V329.56H339.628V325.78H341.388V329.56H344.948V331.24H341.388V335.02H339.628ZM348.06 331.24V329.56H356.94V331.24H348.06ZM360.052 331.24V329.56H368.932V331.24H360.052ZM375.604 335.02V331.24H372.044V329.56H375.604V325.78H377.364V329.56H380.924V331.24H377.364V335.02H375.604ZM384.037 331.24V329.56H392.917V331.24H384.037ZM399.589 335.02V331.24H396.029V329.56H399.589V325.78H401.349V329.56H404.909V331.24H401.349V335.02H399.589ZM408.021 331.24V329.56H416.901V331.24H408.021ZM420.013 331.24V329.56H428.893V331.24H420.013ZM435.565 335.02V331.24H432.005V329.56H435.565V325.78H437.325V329.56H440.885V331.24H437.325V335.02H435.565ZM443.998 331.24V329.56H452.878V331.24H443.998ZM459.55 335.02V331.24H455.99V329.56H459.55V325.78H461.31V329.56H464.87V331.24H461.31V335.02H459.55ZM467.982 331.24V329.56H476.862V331.24H467.982ZM479.974 331.24V329.56H488.854V331.24H479.974ZM491.966 331.24V329.56H500.846V331.24H491.966ZM507.518 335.02V331.24H503.958V329.56H507.518V325.78H509.278V329.56H512.838V331.24H509.278V335.02H507.518ZM519.511 335.02V331.24H515.951V329.56H519.511V325.78H521.271V329.56H524.831V331.24H521.271V335.02H519.511ZM543.495 335.02V331.24H539.935V329.56H543.495V325.78H545.255V329.56H548.815V331.24H545.255V335.02H543.495ZM555.487 335.02V331.24H551.927V329.56H555.487V325.78H557.247V329.56H560.807V331.24H557.247V335.02H555.487ZM603.316 342V322H605.356V342H603.316ZM615.448 335.02V331.24H611.888V329.56H615.448V325.78H617.208V329.56H620.768V331.24H617.208V335.02H615.448ZM623.88 331.24V329.56H632.76V331.24H623.88ZM635.873 331.24V329.56H644.753V331.24H635.873ZM651.425 335.02V331.24H647.865V329.56H651.425V325.78H653.185V329.56H656.745V331.24H653.185V335.02H651.425ZM663.417 335.02V331.24H659.857V329.56H663.417V325.78H665.177V329.56H668.737V331.24H665.177V335.02H663.417ZM15.8388 360.02V356.24H12.2788V354.56H15.8388V350.78H17.5988V354.56H21.1588V356.24H17.5988V360.02H15.8388ZM24.2709 356.24V354.56H33.1509V356.24H24.2709ZM39.8231 360.02V356.24H36.2631V354.56H39.8231V350.78H41.5831V354.56H45.1431V356.24H41.5831V360.02H39.8231ZM48.2553 356.24V354.56H57.1353V356.24H48.2553ZM60.2475 356.24V354.56H69.1275V356.24H60.2475ZM72.2397 356.24V354.56H81.1197V356.24H72.2397ZM84.2319 356.24V354.56H93.1119V356.24H84.2319ZM96.2241 356.24V354.56H105.104V356.24H96.2241ZM111.776 360.02V356.24H108.216V354.56H111.776V350.78H113.536V354.56H117.096V356.24H113.536V360.02H111.776ZM291.659 360.02V356.24H288.099V354.56H291.659V350.78H293.419V354.56H296.979V356.24H293.419V360.02H291.659ZM303.651 360.02V356.24H300.091V354.56H303.651V350.78H305.411V354.56H308.971V356.24H305.411V360.02H303.651ZM315.503 367V347H317.543V367H315.503ZM435.565 360.02V356.24H432.005V354.56H435.565V350.78H437.325V354.56H440.885V356.24H437.325V360.02H435.565ZM443.998 356.24V354.56H452.878V356.24H443.998ZM459.55 360.02V356.24H455.99V354.56H459.55V350.78H461.31V354.56H464.87V356.24H461.31V360.02H459.55ZM471.542 360.02V356.24H467.982V354.56H471.542V350.78H473.302V354.56H476.862V356.24H473.302V360.02H471.542ZM483.534 360.02V356.24H479.974V354.56H483.534V350.78H485.294V354.56H488.854V356.24H485.294V360.02H483.534ZM495.526 360.02V356.24H491.966V354.56H495.526V350.78H497.286V354.56H500.846V356.24H497.286V360.02H495.526ZM503.958 356.24V354.56H512.838V356.24H503.958ZM519.511 360.02V356.24H515.951V354.56H519.511V350.78H521.271V354.56H524.831V356.24H521.271V360.02H519.511ZM531.363 367V347H533.403V367H531.363ZM579.332 367V347H581.372V367H579.332ZM591.324 367V347H593.364V367H591.324ZM627.3 367V347H629.34V367H627.3ZM639.433 360.02V356.24H635.873V354.56H639.433V350.78H641.193V354.56H644.753V356.24H641.193V360.02H639.433ZM647.865 356.24V354.56H656.745V356.24H647.865ZM659.857 356.24V354.56H668.737V356.24H659.857ZM671.849 356.24V354.56H680.729V356.24H671.849ZM687.401 360.02V356.24H683.841V354.56H687.401V350.78H689.161V354.56H692.721V356.24H689.161V360.02H687.401ZM15.6988 392V372H17.7388V392H15.6988ZM39.6831 392V372H41.7231V392H39.6831ZM51.8153 385.02V381.24H48.2553V379.56H51.8153V375.78H53.5753V379.56H57.1353V381.24H53.5753V385.02H51.8153ZM63.8075 385.02V381.24H60.2475V379.56H63.8075V375.78H65.5675V379.56H69.1275V381.24H65.5675V385.02H63.8075ZM75.7997 385.02V381.24H72.2397V379.56H75.7997V375.78H77.5597V379.56H81.1197V381.24H77.5597V385.02H75.7997ZM87.7919 385.02V381.24H84.2319V379.56H87.7919V375.78H89.5519V379.56H93.1119V381.24H89.5519V385.02H87.7919ZM99.7841 385.02V381.24H96.2241V379.56H99.7841V375.78H101.544V379.56H105.104V381.24H101.544V385.02H99.7841ZM111.636 392V372H113.676V392H111.636ZM135.761 385.02V381.24H132.201V379.56H135.761V375.78H137.521V379.56H141.081V381.24H137.521V385.02H135.761ZM147.753 385.02V381.24H144.193V379.56H147.753V375.78H149.513V379.56H153.073V381.24H149.513V385.02H147.753ZM171.737 385.02V381.24H168.177V379.56H171.737V375.78H173.497V379.56H177.057V381.24H173.497V385.02H171.737ZM180.169 381.24V379.56H189.049V381.24H180.169ZM195.722 385.02V381.24H192.162V379.56H195.722V375.78H197.482V379.56H201.042V381.24H197.482V385.02H195.722ZM204.154 381.24V379.56H213.034V381.24H204.154ZM219.706 385.02V381.24H216.146V379.56H219.706V375.78H221.466V379.56H225.026V381.24H221.466V385.02H219.706ZM228.138 381.24V379.56H237.018V381.24H228.138ZM240.13 381.24V379.56H249.01V381.24H240.13ZM252.123 381.24V379.56H261.003V381.24H252.123ZM264.115 381.24V379.56H272.995V381.24H264.115ZM279.667 385.02V381.24H276.107V379.56H279.667V375.78H281.427V379.56H284.987V381.24H281.427V385.02H279.667ZM291.659 385.02V381.24H288.099V379.56H291.659V375.78H293.419V379.56H296.979V381.24H293.419V385.02H291.659ZM303.511 392V372H305.551V392H303.511ZM315.503 392V372H317.543V392H315.503ZM363.612 385.02V381.24H360.052V379.56H363.612V375.78H365.372V379.56H368.932V381.24H365.372V385.02H363.612ZM399.589 385.02V381.24H396.029V379.56H399.589V375.78H401.349V379.56H404.909V381.24H401.349V385.02H399.589ZM423.573 385.02V381.24H420.013V379.56H423.573V375.78H425.333V379.56H428.893V381.24H425.333V385.02H423.573ZM435.565 385.02V381.24H432.005V379.56H435.565V375.78H437.325V379.56H440.885V381.24H437.325V385.02H435.565ZM447.558 385.02V381.24H443.998V379.56H447.558V375.78H449.318V379.56H452.878V381.24H449.318V385.02H447.558ZM459.41 392V372H461.45V392H459.41ZM471.402 392V372H473.442V392H471.402ZM495.386 392V372H497.426V392H495.386ZM507.518 385.02V381.24H503.958V379.56H507.518V375.78H509.278V379.56H512.838V381.24H509.278V385.02H507.518ZM515.951 381.24V379.56H524.831V381.24H515.951ZM531.503 385.02V381.24H527.943V379.56H531.503V375.78H533.263V379.56H536.823V381.24H533.263V385.02H531.503ZM539.935 381.24V379.56H548.815V381.24H539.935ZM551.927 381.24V379.56H560.807V381.24H551.927ZM563.919 381.24V379.56H572.799V381.24H563.919ZM579.472 385.02V381.24H575.912V379.56H579.472V375.78H581.232V379.56H584.792V381.24H581.232V385.02H579.472ZM591.464 385.02V381.24H587.904V379.56H591.464V375.78H593.224V379.56H596.784V381.24H593.224V385.02H591.464ZM603.456 385.02V381.24H599.896V379.56H603.456V375.78H605.216V379.56H608.776V381.24H605.216V385.02H603.456ZM611.888 381.24V379.56H620.768V381.24H611.888ZM627.44 385.02V381.24H623.88V379.56H627.44V375.78H629.2V379.56H632.76V381.24H629.2V385.02H627.44ZM639.433 385.02V381.24H635.873V379.56H639.433V375.78H641.193V379.56H644.753V381.24H641.193V385.02H639.433ZM687.261 392V372H689.301V392H687.261ZM0.286563 406.24V404.56H9.16656V406.24H0.286563ZM15.8388 410.02V406.24H12.2788V404.56H15.8388V400.78H17.5988V404.56H21.1588V406.24H17.5988V410.02H15.8388ZM24.2709 406.24V404.56H33.1509V406.24H24.2709ZM39.8231 410.02V406.24H36.2631V404.56H39.8231V400.78H41.5831V404.56H45.1431V406.24H41.5831V410.02H39.8231ZM48.2553 406.24V404.56H57.1353V406.24H48.2553ZM60.2475 406.24V404.56H69.1275V406.24H60.2475ZM72.2397 406.24V404.56H81.1197V406.24H72.2397ZM84.2319 406.24V404.56H93.1119V406.24H84.2319ZM96.2241 406.24V404.56H105.104V406.24H96.2241ZM111.776 410.02V406.24H108.216V404.56H111.776V400.78H113.536V404.56H117.096V406.24H113.536V410.02H111.776ZM120.208 406.24V404.56H129.088V406.24H120.208ZM135.761 410.02V406.24H132.201V404.56H135.761V400.78H137.521V404.56H141.081V406.24H137.521V410.02H135.761ZM147.753 410.02V406.24H144.193V404.56H147.753V400.78H149.513V404.56H153.073V406.24H149.513V410.02H147.753ZM156.185 406.24V404.56H165.065V406.24H156.185ZM171.737 410.02V406.24H168.177V404.56H171.737V400.78H173.497V404.56H177.057V406.24H173.497V410.02H171.737ZM180.169 406.24V404.56H189.049V406.24H180.169ZM195.722 410.02V406.24H192.162V404.56H195.722V400.78H197.482V404.56H201.042V406.24H197.482V410.02H195.722ZM207.714 410.02V406.24H204.154V404.56H207.714V400.78H209.474V404.56H213.034V406.24H209.474V410.02H207.714ZM219.566 417V397H221.606V417H219.566ZM279.667 410.02V406.24H276.107V404.56H279.667V400.78H281.427V404.56H284.987V406.24H281.427V410.02H279.667ZM288.099 406.24V404.56H296.979V406.24H288.099ZM303.651 410.02V406.24H300.091V404.56H303.651V400.78H305.411V404.56H308.971V406.24H305.411V410.02H303.651ZM315.503 417V397H317.543V417H315.503ZM423.573 410.02V406.24H420.013V404.56H423.573V400.78H425.333V404.56H428.893V406.24H425.333V410.02H423.573ZM435.565 410.02V406.24H432.005V404.56H435.565V400.78H437.325V404.56H440.885V406.24H437.325V410.02H435.565ZM443.998 406.24V404.56H452.878V406.24H443.998ZM459.55 410.02V406.24H455.99V404.56H459.55V400.78H461.31V404.56H464.87V406.24H461.31V410.02H459.55ZM471.542 410.02V406.24H467.982V404.56H471.542V400.78H473.302V404.56H476.862V406.24H473.302V410.02H471.542ZM479.974 406.24V404.56H488.854V406.24H479.974ZM495.526 410.02V406.24H491.966V404.56H495.526V400.78H497.286V404.56H500.846V406.24H497.286V410.02H495.526ZM507.378 417V397H509.418V417H507.378ZM531.503 410.02V406.24H527.943V404.56H531.503V400.78H533.263V404.56H536.823V406.24H533.263V410.02H531.503ZM539.935 406.24V404.56H548.815V406.24H539.935ZM555.487 410.02V406.24H551.927V404.56H555.487V400.78H557.247V404.56H560.807V406.24H557.247V410.02H555.487ZM563.919 406.24V404.56H572.799V406.24H563.919ZM575.912 406.24V404.56H584.792V406.24H575.912ZM591.464 410.02V406.24H587.904V404.56H591.464V400.78H593.224V404.56H596.784V406.24H593.224V410.02H591.464ZM603.456 410.02V406.24H599.896V404.56H603.456V400.78H605.216V404.56H608.776V406.24H605.216V410.02H603.456ZM615.448 410.02V406.24H611.888V404.56H615.448V400.78H617.208V404.56H620.768V406.24H617.208V410.02H615.448ZM627.44 410.02V406.24H623.88V404.56H627.44V400.78H629.2V404.56H632.76V406.24H629.2V410.02H627.44ZM639.293 417V397H641.333V417H639.293ZM687.261 417V397H689.301V417H687.261ZM219.566 442V422H221.606V442H219.566ZM255.683 435.02V431.24H252.123V429.56H255.683V425.78H257.443V429.56H261.003V431.24H257.443V435.02H255.683ZM264.115 431.24V429.56H272.995V431.24H264.115ZM279.667 435.02V431.24H276.107V429.56H279.667V425.78H281.427V429.56H284.987V431.24H281.427V435.02H279.667ZM291.659 435.02V431.24H288.099V429.56H291.659V425.78H293.419V429.56H296.979V431.24H293.419V435.02H291.659ZM303.651 435.02V431.24H300.091V429.56H303.651V425.78H305.411V429.56H308.971V431.24H305.411V435.02H303.651ZM315.503 442V422H317.543V442H315.503ZM351.62 435.02V431.24H348.06V429.56H351.62V425.78H353.38V429.56H356.94V431.24H353.38V435.02H351.62ZM399.589 435.02V431.24H396.029V429.56H399.589V425.78H401.349V429.56H404.909V431.24H401.349V435.02H399.589ZM435.425 442V422H437.465V442H435.425ZM447.558 435.02V431.24H443.998V429.56H447.558V425.78H449.318V429.56H452.878V431.24H449.318V435.02H447.558ZM459.55 435.02V431.24H455.99V429.56H459.55V425.78H461.31V429.56H464.87V431.24H461.31V435.02H459.55ZM467.982 431.24V429.56H476.862V431.24H467.982ZM483.534 435.02V431.24H479.974V429.56H483.534V425.78H485.294V429.56H488.854V431.24H485.294V435.02H483.534ZM495.526 435.02V431.24H491.966V429.56H495.526V425.78H497.286V429.56H500.846V431.24H497.286V435.02H495.526ZM507.378 442V422H509.418V442H507.378ZM531.363 442V422H533.403V442H531.363ZM555.347 442V422H557.387V442H555.347ZM591.324 442V422H593.364V442H591.324ZM615.448 435.02V431.24H611.888V429.56H615.448V425.78H617.208V429.56H620.768V431.24H617.208V435.02H615.448ZM623.88 431.24V429.56H632.76V431.24H623.88ZM639.433 435.02V431.24H635.873V429.56H639.433V425.78H641.193V429.56H644.753V431.24H641.193V435.02H639.433ZM647.865 431.24V429.56H656.745V431.24H647.865ZM659.857 431.24V429.56H668.737V431.24H659.857ZM671.849 431.24V429.56H680.729V431.24H671.849ZM687.401 435.02V431.24H683.841V429.56H687.401V425.78H689.161V429.56H692.721V431.24H689.161V435.02H687.401ZM39.6831 467V447H41.7231V467H39.6831ZM75.7997 460.02V456.24H72.2397V454.56H75.7997V450.78H77.5597V454.56H81.1197V456.24H77.5597V460.02H75.7997ZM87.7919 460.02V456.24H84.2319V454.56H87.7919V450.78H89.5519V454.56H93.1119V456.24H89.5519V460.02H87.7919ZM99.7841 460.02V456.24H96.2241V454.56H99.7841V450.78H101.544V454.56H105.104V456.24H101.544V460.02H99.7841ZM111.776 460.02V456.24H108.216V454.56H111.776V450.78H113.536V454.56H117.096V456.24H113.536V460.02H111.776ZM120.208 456.24V454.56H129.088V456.24H120.208ZM132.201 456.24V454.56H141.081V456.24H132.201ZM144.193 456.24V454.56H153.073V456.24H144.193ZM159.745 460.02V456.24H156.185V454.56H159.745V450.78H161.505V454.56H165.065V456.24H161.505V460.02H159.745ZM171.737 460.02V456.24H168.177V454.56H171.737V450.78H173.497V454.56H177.057V456.24H173.497V460.02H171.737ZM180.169 456.24V454.56H189.049V456.24H180.169ZM192.162 456.24V454.56H201.042V456.24H192.162ZM207.714 460.02V456.24H204.154V454.56H207.714V450.78H209.474V454.56H213.034V456.24H209.474V460.02H207.714ZM255.683 460.02V456.24H252.123V454.56H255.683V450.78H257.443V454.56H261.003V456.24H257.443V460.02H255.683ZM264.115 456.24V454.56H272.995V456.24H264.115ZM276.107 456.24V454.56H284.987V456.24H276.107ZM291.659 460.02V456.24H288.099V454.56H291.659V450.78H293.419V454.56H296.979V456.24H293.419V460.02H291.659ZM303.651 460.02V456.24H300.091V454.56H303.651V450.78H305.411V454.56H308.971V456.24H305.411V460.02H303.651ZM312.083 456.24V454.56H320.963V456.24H312.083ZM327.636 460.02V456.24H324.076V454.56H327.636V450.78H329.396V454.56H332.956V456.24H329.396V460.02H327.636ZM339.628 460.02V456.24H336.068V454.56H339.628V450.78H341.388V454.56H344.948V456.24H341.388V460.02H339.628ZM351.48 467V447H353.52V467H351.48ZM471.402 467V447H473.442V467H471.402ZM519.371 467V447H521.411V467H519.371ZM531.503 460.02V456.24H527.943V454.56H531.503V450.78H533.263V454.56H536.823V456.24H533.263V460.02H531.503ZM543.495 460.02V456.24H539.935V454.56H543.495V450.78H545.255V454.56H548.815V456.24H545.255V460.02H543.495ZM551.927 456.24V454.56H560.807V456.24H551.927ZM567.479 460.02V456.24H563.919V454.56H567.479V450.78H569.239V454.56H572.799V456.24H569.239V460.02H567.479ZM575.912 456.24V454.56H584.792V456.24H575.912ZM591.464 460.02V456.24H587.904V454.56H591.464V450.78H593.224V454.56H596.784V456.24H593.224V460.02H591.464ZM599.896 456.24V454.56H608.776V456.24H599.896ZM611.888 456.24V454.56H620.768V456.24H611.888ZM627.44 460.02V456.24H623.88V454.56H627.44V450.78H629.2V454.56H632.76V456.24H629.2V460.02H627.44ZM635.873 456.24V454.56H644.753V456.24H635.873ZM651.425 460.02V456.24H647.865V454.56H651.425V450.78H653.185V454.56H656.745V456.24H653.185V460.02H651.425ZM51.6753 492V472H53.7153V492H51.6753ZM87.6519 492V472H89.6919V492H87.6519ZM99.7841 485.02V481.24H96.2241V479.56H99.7841V475.78H101.544V479.56H105.104V481.24H101.544V485.02H99.7841ZM108.216 481.24V479.56H117.096V481.24H108.216ZM123.768 485.02V481.24H120.208V479.56H123.768V475.78H125.528V479.56H129.088V481.24H125.528V485.02H123.768ZM135.761 485.02V481.24H132.201V479.56H135.761V475.78H137.521V479.56H141.081V481.24H137.521V485.02H135.761ZM147.753 485.02V481.24H144.193V479.56H147.753V475.78H149.513V479.56H153.073V481.24H149.513V485.02H147.753ZM159.745 485.02V481.24H156.185V479.56H159.745V475.78H161.505V479.56H165.065V481.24H161.505V485.02H159.745ZM171.737 485.02V481.24H168.177V479.56H171.737V475.78H173.497V479.56H177.057V481.24H173.497V485.02H171.737ZM183.729 485.02V481.24H180.169V479.56H183.729V475.78H185.489V479.56H189.049V481.24H185.489V485.02H183.729ZM219.566 492V472H221.606V492H219.566ZM231.698 485.02V481.24H228.138V479.56H231.698V475.78H233.458V479.56H237.018V481.24H233.458V485.02H231.698ZM243.69 485.02V481.24H240.13V479.56H243.69V475.78H245.45V479.56H249.01V481.24H245.45V485.02H243.69ZM255.683 485.02V481.24H252.123V479.56H255.683V475.78H257.443V479.56H261.003V481.24H257.443V485.02H255.683ZM267.675 485.02V481.24H264.115V479.56H267.675V475.78H269.435V479.56H272.995V481.24H269.435V485.02H267.675ZM276.107 481.24V479.56H284.987V481.24H276.107ZM288.099 481.24V479.56H296.979V481.24H288.099ZM303.651 485.02V481.24H300.091V479.56H303.651V475.78H305.411V479.56H308.971V481.24H305.411V485.02H303.651ZM315.503 492V472H317.543V492H315.503ZM339.628 485.02V481.24H336.068V479.56H339.628V475.78H341.388V479.56H344.948V481.24H341.388V485.02H339.628ZM348.06 481.24V479.56H356.94V481.24H348.06ZM363.612 485.02V481.24H360.052V479.56H363.612V475.78H365.372V479.56H368.932V481.24H365.372V485.02H363.612ZM411.581 485.02V481.24H408.021V479.56H411.581V475.78H413.341V479.56H416.901V481.24H413.341V485.02H411.581ZM447.558 485.02V481.24H443.998V479.56H447.558V475.78H449.318V479.56H452.878V481.24H449.318V485.02H447.558ZM471.542 485.02V481.24H467.982V479.56H471.542V475.78H473.302V479.56H476.862V481.24H473.302V485.02H471.542ZM483.534 485.02V481.24H479.974V479.56H483.534V475.78H485.294V479.56H488.854V481.24H485.294V485.02H483.534ZM495.526 485.02V481.24H491.966V479.56H495.526V475.78H497.286V479.56H500.846V481.24H497.286V485.02H495.526ZM515.951 481.24V479.56H524.831V481.24H515.951ZM531.503 485.02V481.24H527.943V479.56H531.503V475.78H533.263V479.56H536.823V481.24H533.263V485.02H531.503ZM539.935 481.24V479.56H548.815V481.24H539.935ZM551.927 481.24V479.56H560.807V481.24H551.927ZM563.919 481.24V479.56H572.799V481.24H563.919ZM575.912 481.24V479.56H584.792V481.24H575.912ZM587.904 481.24V479.56H596.784V481.24H587.904ZM599.896 481.24V479.56H608.776V481.24H599.896ZM611.888 481.24V479.56H620.768V481.24H611.888ZM623.88 481.24V479.56H632.76V481.24H623.88ZM639.433 485.02V481.24H635.873V479.56H639.433V475.78H641.193V479.56H644.753V481.24H641.193V485.02H639.433ZM45.8192 510.02V506.24H42.2592V504.56H45.8192V500.78H47.5792V504.56H51.1392V506.24H47.5792V510.02H45.8192ZM54.2514 506.24V504.56H63.1314V506.24H54.2514ZM66.2436 506.24V504.56H75.1236V506.24H66.2436ZM81.7958 510.02V506.24H78.2358V504.56H81.7958V500.78H83.5558V504.56H87.1158V506.24H83.5558V510.02H81.7958ZM90.228 506.24V504.56H99.108V506.24H90.228ZM102.22 506.24V504.56H111.1V506.24H102.22ZM114.212 506.24V504.56H123.092V506.24H114.212ZM126.205 506.24V504.56H135.085V506.24H126.205ZM138.197 506.24V504.56H147.077V506.24H138.197ZM150.189 506.24V504.56H159.069V506.24H150.189ZM162.181 506.24V504.56H171.061V506.24H162.181ZM177.733 510.02V506.24H174.173V504.56H177.733V500.78H179.493V504.56H183.053V506.24H179.493V510.02H177.733ZM186.165 506.24V504.56H195.045V506.24H186.165ZM198.158 506.24V504.56H207.038V506.24H198.158ZM213.71 510.02V506.24H210.15V504.56H213.71V500.78H215.47V504.56H219.03V506.24H215.47V510.02H213.71ZM222.142 506.24V504.56H231.022V506.24H222.142ZM237.694 510.02V506.24H234.134V504.56H237.694V500.78H239.454V504.56H243.014V506.24H239.454V510.02H237.694ZM249.686 510.02V506.24H246.126V504.56H249.686V500.78H251.446V504.56H255.006V506.24H251.446V510.02H249.686ZM297.655 510.02V506.24H294.095V504.56H297.655V500.78H299.415V504.56H302.975V506.24H299.415V510.02H297.655ZM309.647 510.02V506.24H306.087V504.56H309.647V500.78H311.407V504.56H314.967V506.24H311.407V510.02H309.647ZM318.08 506.24V504.56H326.96V506.24H318.08ZM333.632 510.02V506.24H330.072V504.56H333.632V500.78H335.392V504.56H338.952V506.24H335.392V510.02H333.632ZM345.624 510.02V506.24H342.064V504.56H345.624V500.78H347.384V504.56H350.944V506.24H347.384V510.02H345.624ZM357.476 517V497H359.516V517H357.476ZM465.546 510.02V506.24H461.986V504.56H465.546V500.78H467.306V504.56H470.866V506.24H467.306V510.02H465.546ZM477.538 510.02V506.24H473.978V504.56H477.538V500.78H479.298V504.56H482.858V506.24H479.298V510.02H477.538ZM633.436 510.02V506.24H629.876V504.56H633.436V500.78H635.196V504.56H638.756V506.24H635.196V510.02H633.436ZM641.869 506.24V504.56H650.749V506.24H641.869ZM417.577 535.02V531.24H414.017V529.56H417.577V525.78H419.337V529.56H422.897V531.24H419.337V535.02H417.577ZM426.009 531.24V529.56H434.889V531.24H426.009ZM441.561 535.02V531.24H438.001V529.56H441.561V525.78H443.321V529.56H446.881V531.24H443.321V535.02H441.561ZM561.343 542V522H563.383V542H561.343ZM417.577 560.02V556.24H414.017V554.56H417.577V550.78H419.337V554.56H422.897V556.24H419.337V560.02H417.577ZM426.009 556.24V554.56H434.889V556.24H426.009ZM441.561 560.02V556.24H438.001V554.56H441.561V550.78H443.321V554.56H446.881V556.24H443.321V560.02H441.561ZM561.343 567V547H563.383V567H561.343ZM405.585 585.02V581.24H402.025V579.56H405.585V575.78H407.345V579.56H410.905V581.24H407.345V585.02H405.585ZM417.577 585.02V581.24H414.017V579.56H417.577V575.78H419.337V579.56H422.897V581.24H419.337V585.02H417.577ZM429.569 585.02V581.24H426.009V579.56H429.569V575.78H431.329V579.56H434.889V581.24H431.329V585.02H429.569ZM441.421 592V572H443.461V592H441.421ZM549.491 585.02V581.24H545.931V579.56H549.491V575.78H551.251V579.56H554.811V581.24H551.251V585.02H549.491ZM561.483 585.02V581.24H557.923V579.56H561.483V575.78H563.243V579.56H566.803V581.24H563.243V585.02H561.483ZM405.585 610.02V606.24H402.025V604.56H405.585V600.78H407.345V604.56H410.905V606.24H407.345V610.02H405.585ZM417.577 610.02V606.24H414.017V604.56H417.577V600.78H419.337V604.56H422.897V606.24H419.337V610.02H417.577ZM426.009 606.24V604.56H434.889V606.24H426.009ZM441.561 610.02V606.24H438.001V604.56H441.561V600.78H443.321V604.56H446.881V606.24H443.321V610.02H441.561ZM549.491 610.02V606.24H545.931V604.56H549.491V600.78H551.251V604.56H554.811V606.24H551.251V610.02H549.491ZM561.483 610.02V606.24H557.923V604.56H561.483V600.78H563.243V604.56H566.803V606.24H563.243V610.02H561.483ZM423.433 642V622H425.473V642H423.433ZM435.565 635.02V631.24H432.005V629.56H435.565V625.78H437.325V629.56H440.885V631.24H437.325V635.02H435.565ZM447.558 635.02V631.24H443.998V629.56H447.558V625.78H449.318V629.56H452.878V631.24H449.318V635.02H447.558ZM455.99 631.24V629.56H464.87V631.24H455.99ZM467.982 631.24V629.56H476.862V631.24H467.982ZM479.974 631.24V629.56H488.854V631.24H479.974ZM491.966 631.24V629.56H500.846V631.24H491.966ZM507.518 635.02V631.24H503.958V629.56H507.518V625.78H509.278V629.56H512.838V631.24H509.278V635.02H507.518ZM519.511 635.02V631.24H515.951V629.56H519.511V625.78H521.271V629.56H524.831V631.24H521.271V635.02H519.511ZM527.943 631.24V629.56H536.823V631.24H527.943ZM539.935 631.24V629.56H548.815V631.24H539.935ZM555.487 635.02V631.24H551.927V629.56H555.487V625.78H557.247V629.56H560.807V631.24H557.247V635.02H555.487ZM411.581 660.02V656.24H408.021V654.56H411.581V650.78H413.341V654.56H416.901V656.24H413.341V660.02H411.581ZM423.573 660.02V656.24H420.013V654.56H423.573V650.78H425.333V654.56H428.893V656.24H425.333V660.02H423.573ZM435.565 660.02V656.24H432.005V654.56H435.565V650.78H437.325V654.56H440.885V656.24H437.325V660.02H435.565ZM447.558 660.02V656.24H443.998V654.56H447.558V650.78H449.318V654.56H452.878V656.24H449.318V660.02H447.558ZM459.55 660.02V656.24H455.99V654.56H459.55V650.78H461.31V654.56H464.87V656.24H461.31V660.02H459.55ZM467.982 656.24V654.56H476.862V656.24H467.982ZM483.534 660.02V656.24H479.974V654.56H483.534V650.78H485.294V654.56H488.854V656.24H485.294V660.02H483.534ZM495.526 660.02V656.24H491.966V654.56H495.526V650.78H497.286V654.56H500.846V656.24H497.286V660.02H495.526ZM507.518 660.02V656.24H503.958V654.56H507.518V650.78H509.278V654.56H512.838V656.24H509.278V660.02H507.518ZM519.511 660.02V656.24H515.951V654.56H519.511V650.78H521.271V654.56H524.831V656.24H521.271V660.02H519.511ZM555.347 667V647H557.387V667H555.347ZM399.589 685.02V681.24H396.029V679.56H399.589V675.78H401.349V679.56H404.909V681.24H401.349V685.02H399.589ZM411.581 685.02V681.24H408.021V679.56H411.581V675.78H413.341V679.56H416.901V681.24H413.341V685.02H411.581ZM420.013 681.24V679.56H428.893V681.24H420.013ZM432.005 681.24V679.56H440.885V681.24H432.005ZM447.558 685.02V681.24H443.998V679.56H447.558V675.78H449.318V679.56H452.878V681.24H449.318V685.02H447.558ZM459.55 685.02V681.24H455.99V679.56H459.55V675.78H461.31V679.56H464.87V681.24H461.31V685.02H459.55ZM471.542 685.02V681.24H467.982V679.56H471.542V675.78H473.302V679.56H476.862V681.24H473.302V685.02H471.542ZM479.974 681.24V679.56H488.854V681.24H479.974ZM495.526 685.02V681.24H491.966V679.56H495.526V675.78H497.286V679.56H500.846V681.24H497.286V685.02H495.526ZM507.378 692V672H509.418V692H507.378ZM543.355 692V672H545.395V692H543.355ZM555.487 685.02V681.24H551.927V679.56H555.487V675.78H557.247V679.56H560.807V681.24H557.247V685.02H555.487ZM567.479 685.02V681.24H563.919V679.56H567.479V675.78H569.239V679.56H572.799V681.24H569.239V685.02H567.479ZM423.433 717V697H425.473V717H423.433ZM459.55 710.02V706.24H455.99V704.56H459.55V700.78H461.31V704.56H464.87V706.24H461.31V710.02H459.55ZM467.982 706.24V704.56H476.862V706.24H467.982ZM483.534 710.02V706.24H479.974V704.56H483.534V700.78H485.294V704.56H488.854V706.24H485.294V710.02H483.534ZM495.526 710.02V706.24H491.966V704.56H495.526V700.78H497.286V704.56H500.846V706.24H497.286V710.02H495.526ZM507.378 717V697H509.418V717H507.378ZM519.511 710.02V706.24H515.951V704.56H519.511V700.78H521.271V704.56H524.831V706.24H521.271V710.02H519.511ZM527.943 706.24V704.56H536.823V706.24H527.943ZM539.935 706.24V704.56H548.815V706.24H539.935ZM555.487 710.02V706.24H551.927V704.56H555.487V700.78H557.247V704.56H560.807V706.24H557.247V710.02H555.487ZM417.577 735.02V731.24H414.017V729.56H417.577V725.78H419.337V729.56H422.897V731.24H419.337V735.02H417.577ZM429.569 735.02V731.24H426.009V729.56H429.569V725.78H431.329V729.56H434.889V731.24H431.329V735.02H429.569ZM438.001 731.24V729.56H446.881V731.24H438.001ZM453.554 735.02V731.24H449.994V729.56H453.554V725.78H455.314V729.56H458.874V731.24H455.314V735.02H453.554ZM465.546 735.02V731.24H461.986V729.56H465.546V725.78H467.306V729.56H470.866V731.24H467.306V735.02H465.546ZM477.538 735.02V731.24H473.978V729.56H477.538V725.78H479.298V729.56H482.858V731.24H479.298V735.02H477.538ZM485.97 731.24V729.56H494.85V731.24H485.97ZM501.522 735.02V731.24H497.962V729.56H501.522V725.78H503.282V729.56H506.842V731.24H503.282V735.02H501.522ZM509.955 731.24V729.56H518.835V731.24H509.955ZM521.947 731.24V729.56H530.827V731.24H521.947ZM533.939 731.24V729.56H542.819V731.24H533.939ZM549.491 735.02V731.24H545.931V729.56H549.491V725.78H551.251V729.56H554.811V731.24H551.251V735.02H549.491ZM561.483 735.02V731.24H557.923V729.56H561.483V725.78H563.243V729.56H566.803V731.24H563.243V735.02H561.483ZM429.569 760.02V756.24H426.009V754.56H429.569V750.78H431.329V754.56H434.889V756.24H431.329V760.02H429.569ZM438.001 756.24V754.56H446.881V756.24H438.001ZM449.994 756.24V754.56H458.874V756.24H449.994ZM461.986 756.24V754.56H470.866V756.24H461.986ZM477.538 760.02V756.24H473.978V754.56H477.538V750.78H479.298V754.56H482.858V756.24H479.298V760.02H477.538ZM489.53 760.02V756.24H485.97V754.56H489.53V750.78H491.29V754.56H494.85V756.24H491.29V760.02H489.53ZM501.382 767V747H503.422V767H501.382ZM561.343 767V747H563.383V767H561.343ZM429.429 792V772H431.469V792H429.429ZM477.398 792V772H479.438V792H477.398ZM489.53 785.02V781.24H485.97V779.56H489.53V775.78H491.29V779.56H494.85V781.24H491.29V785.02H489.53ZM501.522 785.02V781.24H497.962V779.56H501.522V775.78H503.282V779.56H506.842V781.24H503.282V785.02H501.522ZM509.955 781.24V779.56H518.835V781.24H509.955ZM521.947 781.24V779.56H530.827V781.24H521.947ZM537.499 785.02V781.24H533.939V779.56H537.499V775.78H539.259V779.56H542.819V781.24H539.259V785.02H537.499ZM561.343 792V772H563.383V792H561.343ZM429.429 817V797H431.469V817H429.429ZM477.398 817V797H479.438V817H477.398ZM489.53 810.02V806.24H485.97V804.56H489.53V800.78H491.29V804.56H494.85V806.24H491.29V810.02H489.53ZM497.962 806.24V804.56H506.842V806.24H497.962ZM509.955 806.24V804.56H518.835V806.24H509.955ZM521.947 806.24V804.56H530.827V806.24H521.947ZM537.499 810.02V806.24H533.939V804.56H537.499V800.78H539.259V804.56H542.819V806.24H539.259V810.02H537.499ZM545.931 806.24V804.56H554.811V806.24H545.931ZM561.483 810.02V806.24H557.923V804.56H561.483V800.78H563.243V804.56H566.803V806.24H563.243V810.02H561.483ZM441.561 835.02V831.24H438.001V829.56H441.561V825.78H443.321V829.56H446.881V831.24H443.321V835.02H441.561ZM449.994 831.24V829.56H458.874V831.24H449.994ZM461.986 831.24V829.56H470.866V831.24H461.986ZM473.978 831.24V829.56H482.858V831.24H473.978ZM489.53 835.02V831.24H485.97V829.56H489.53V825.78H491.29V829.56H494.85V831.24H491.29V835.02H489.53ZM501.382 842V822H503.422V842H501.382ZM549.351 842V822H551.391V842H549.351ZM489.53 860.02V856.24H485.97V854.56H489.53V850.78H491.29V854.56H494.85V856.24H491.29V860.02H489.53ZM501.522 860.02V856.24H497.962V854.56H501.522V850.78H503.282V854.56H506.842V856.24H503.282V860.02H501.522ZM509.955 856.24V854.56H518.835V856.24H509.955ZM521.947 856.24V854.56H530.827V856.24H521.947ZM533.939 856.24V854.56H542.819V856.24H533.939ZM549.491 860.02V856.24H545.931V854.56H549.491V850.78H551.251V854.56H554.811V856.24H551.251V860.02H549.491Z" fill="#6BF3F3"/>
</svg>
